<svg width="226" height="48" viewBox="0 0 226 48" fill="none" xmlns="http://www.w3.org/2000/svg">
<g filter="url(#filter0_d_26_427)">
<rect x="2" y="1" width="222" height="44" rx="8" fill="white"/>
<rect x="2.5" y="1.5" width="221" height="43" rx="7.5" stroke="#D0D5DD"/>
<g clip-path="url(#clip0_26_427)">
<path d="M36.266 23.2764C36.266 22.4607 36.1999 21.6406 36.0588 20.8381H24.74V25.4591H31.2217C30.9528 26.9494 30.0885 28.2678 28.823 29.1056V32.1039H32.69C34.9608 30.0139 36.266 26.9274 36.266 23.2764Z" fill="#4285F4"/>
<path d="M24.74 35.0008C27.9764 35.0008 30.7058 33.9382 32.6944 32.1039L28.8274 29.1055C27.7516 29.8375 26.3626 30.252 24.7444 30.252C21.6138 30.252 18.9593 28.1399 18.0069 25.3003H14.0165V28.3912C16.0536 32.4434 20.2028 35.0008 24.74 35.0008Z" fill="#34A853"/>
<path d="M18.0025 25.3003C17.4999 23.8099 17.4999 22.1961 18.0025 20.7057V17.6148H14.0165C12.3145 21.0056 12.3145 25.0004 14.0165 28.3912L18.0025 25.3003Z" fill="#FBBC04"/>
<path d="M24.74 15.7497C26.4508 15.7232 28.1043 16.367 29.3433 17.5487L32.7694 14.1226C30.6 12.0855 27.7207 10.9655 24.74 11.0008C20.2028 11.0008 16.0536 13.5582 14.0165 17.6148L18.0025 20.7058C18.9505 17.8617 21.6094 15.7497 24.74 15.7497Z" fill="#EA4335"/>
</g>
<path d="M60.3873 27.1989V25.0192L65.8525 16.4091H67.7318V19.4261H66.6196L63.1743 24.8786V24.9808H70.9406V27.1989H60.3873ZM66.6707 29.5V26.5341L66.7219 25.5689V16.4091H69.317V29.5H66.6707ZM74.1558 29.6662C73.7339 29.6662 73.3717 29.517 73.0692 29.2188C72.7709 28.9162 72.6217 28.554 72.6217 28.1321C72.6217 27.7145 72.7709 27.3565 73.0692 27.0582C73.3717 26.7599 73.7339 26.6108 74.1558 26.6108C74.5649 26.6108 74.9229 26.7599 75.2297 27.0582C75.5365 27.3565 75.6899 27.7145 75.6899 28.1321C75.6899 28.4134 75.6175 28.6712 75.4726 28.9055C75.3319 29.1357 75.1466 29.321 74.9165 29.4616C74.6863 29.598 74.4328 29.6662 74.1558 29.6662ZM82.3904 16.2301C83.0637 16.2301 83.7114 16.343 84.3335 16.5689C84.96 16.7947 85.5182 17.1548 86.0083 17.6491C86.5026 18.1435 86.8925 18.7997 87.178 19.6179C87.4678 20.4318 87.6148 21.4311 87.6191 22.6158C87.6191 23.728 87.4933 24.7209 87.2419 25.5945C86.9948 26.4638 86.6389 27.2031 86.1745 27.8125C85.71 28.4219 85.1496 28.8864 84.4933 29.206C83.8371 29.5213 83.1041 29.679 82.2945 29.679C81.4209 29.679 80.6496 29.5107 79.9806 29.174C79.3115 28.8331 78.7725 28.3707 78.3634 27.7869C77.9585 27.1989 77.7135 26.5384 77.6283 25.8054H80.3577C80.4642 26.2827 80.6879 26.6534 81.0289 26.9176C81.3698 27.1776 81.7916 27.3075 82.2945 27.3075C83.1468 27.3075 83.7945 26.9368 84.2377 26.1953C84.6808 25.4496 84.9046 24.429 84.9088 23.1335H84.8193C84.6233 23.517 84.3591 23.8473 84.0267 24.1243C83.6943 24.397 83.3129 24.608 82.8825 24.7571C82.4564 24.9062 82.0026 24.9808 81.521 24.9808C80.7497 24.9808 80.0615 24.7997 79.4564 24.4375C78.8513 24.0753 78.374 23.5767 78.0246 22.9418C77.6752 22.3068 77.5004 21.5824 77.5004 20.7685C77.4962 19.8906 77.6986 19.1087 78.1077 18.4226C78.5168 17.7365 79.0878 17.1996 79.8208 16.8118C80.558 16.4197 81.4145 16.2259 82.3904 16.2301ZM82.4095 18.4034C81.9791 18.4034 81.5956 18.5057 81.259 18.7102C80.9266 18.9148 80.6624 19.1896 80.4664 19.5348C80.2746 19.88 80.1808 20.2656 80.1851 20.6918C80.1851 21.1222 80.2789 21.5099 80.4664 21.8551C80.6581 22.196 80.9181 22.4687 81.2462 22.6733C81.5786 22.8736 81.9578 22.9737 82.384 22.9737C82.7036 22.9737 82.9997 22.9141 83.2725 22.7947C83.5452 22.6754 83.7817 22.5114 83.982 22.3026C84.1865 22.0895 84.3463 21.8445 84.4614 21.5675C84.5764 21.2905 84.634 20.9964 84.634 20.6854C84.6297 20.272 84.5317 19.8928 84.3399 19.5476C84.1482 19.2024 83.884 18.9254 83.5473 18.7166C83.2107 18.5078 82.8314 18.4034 82.4095 18.4034Z" fill="black"/>
<path d="M102.5 28.1626L108.062 31.5L106.586 25.21L111.5 20.9779L105.029 20.4232L102.5 14.5L99.971 20.4232L93.5 20.9779L98.405 25.21L96.938 31.5L102.5 28.1626Z" fill="#FCD34D"/>
<path d="M125.5 28.1626L131.062 31.5L129.586 25.21L134.5 20.9779L128.029 20.4232L125.5 14.5L122.971 20.4232L116.5 20.9779L121.405 25.21L119.938 31.5L125.5 28.1626Z" fill="#FCD34D"/>
<path d="M148.5 28.1626L154.062 31.5L152.586 25.21L157.5 20.9779L151.029 20.4232L148.5 14.5L145.971 20.4232L139.5 20.9779L144.405 25.21L142.938 31.5L148.5 28.1626Z" fill="#FCD34D"/>
<path d="M171.5 28.1626L177.062 31.5L175.586 25.21L180.5 20.9779L174.029 20.4232L171.5 14.5L168.971 20.4232L162.5 20.9779L167.405 25.21L165.938 31.5L171.5 28.1626Z" fill="#FCD34D"/>
<path d="M194.5 26.4895V18.1684L196.039 21.7742L199.981 22.1053L196.993 24.6911L197.884 28.5205L194.5 26.4895ZM203.5 20.9779L197.029 20.4321L194.5 14.5L191.971 20.4321L185.5 20.9779L190.405 25.21L188.938 31.5L194.5 28.1626L200.062 31.5L198.586 25.21L203.5 20.9779Z" fill="#FCD34D"/>
</g>
<defs>
<filter id="filter0_d_26_427" x="0" y="0" width="226" height="48" filterUnits="userSpaceOnUse" color-interpolation-filters="sRGB">
<feFlood flood-opacity="0" result="BackgroundImageFix"/>
<feColorMatrix in="SourceAlpha" type="matrix" values="0 0 0 0 0 0 0 0 0 0 0 0 0 0 0 0 0 0 127 0" result="hardAlpha"/>
<feOffset dy="1"/>
<feGaussianBlur stdDeviation="1"/>
<feColorMatrix type="matrix" values="0 0 0 0 0.0627451 0 0 0 0 0.0941176 0 0 0 0 0.156863 0 0 0 0.05 0"/>
<feBlend mode="normal" in2="BackgroundImageFix" result="effect1_dropShadow_26_427"/>
<feBlend mode="normal" in="SourceGraphic" in2="effect1_dropShadow_26_427" result="shape"/>
</filter>
<clipPath id="clip0_26_427">
<rect width="24" height="24" fill="white" transform="translate(12.5 11)"/>
</clipPath>
</defs>
</svg>
